<?xml version="1.0" standalone="no"?>
<!DOCTYPE svg PUBLIC "-//W3C//DTD SVG 20010904//EN"
 "http://www.w3.org/TR/2001/REC-SVG-20010904/DTD/svg10.dtd">
<svg version="1.0" xmlns="http://www.w3.org/2000/svg"
 width="1070.000000pt" height="1280.000000pt" viewBox="0 0 1070.000000 1280.000000"
 preserveAspectRatio="xMidYMid meet">
<metadata>
Created by potrace 1.15, written by Peter Selinger 2001-2017
</metadata>
<g transform="translate(0.000000,1280.000000) scale(0.100000,-0.100000)"
fill="#000000" stroke="none">
<path d="M2750 12264 c-389 -47 -652 -125 -974 -286 -464 -233 -792 -561
-1012 -1013 -110 -228 -177 -442 -223 -715 -62 -365 -51 -891 26 -1255 105
-502 416 -1077 933 -1726 l80 -100 0 -1290 c0 -1249 1 -1291 19 -1344 38 -108
131 -201 241 -241 67 -24 191 -22 260 5 109 42 187 120 234 235 21 50 21 64
24 910 l3 860 174 -174 175 -175 0 -2095 c0 -2059 0 -2096 20 -2127 56 -92
177 -94 237 -4 l23 34 0 1953 c0 1075 3 1954 8 1954 4 0 40 -33 80 -73 l72
-72 2 -1470 3 -1470 29 -53 c124 -222 438 -222 562 0 l29 53 3 1173 c1 644 6
1172 10 1172 4 0 99 -84 212 -187 113 -104 356 -325 540 -493 184 -168 435
-398 559 -512 123 -115 228 -208 233 -208 4 0 100 86 212 190 113 105 207 190
210 190 3 0 6 -727 6 -1615 0 -1439 2 -1619 15 -1646 49 -94 203 -91 249 5 14
31 16 197 16 1779 l0 1744 79 72 c44 39 82 71 85 71 3 0 6 -504 6 -1120 0
-1011 2 -1124 16 -1153 88 -174 332 -160 393 22 8 25 11 391 11 1340 l0 1306
127 115 c848 768 1625 1535 2074 2045 725 824 1142 1525 1268 2131 44 215 56
360 56 704 0 290 -3 342 -24 480 -96 640 -358 1132 -796 1499 -295 246 -725
447 -1136 531 -374 76 -816 63 -1179 -36 -554 -151 -1065 -452 -1573 -926
l-118 -110 -92 89 c-575 554 -1230 905 -1887 1008 -101 16 -517 29 -600 19z
m423 -999 c481 -63 970 -337 1437 -805 182 -181 265 -284 507 -622 113 -159
208 -288 212 -288 4 0 99 127 211 283 228 316 277 379 413 527 413 449 934
781 1382 879 335 73 647 46 970 -86 482 -196 746 -526 835 -1043 40 -233 37
-618 -6 -870 -107 -615 -775 -1511 -2032 -2726 -453 -438 -1749 -1634 -1771
-1634 -8 0 -503 449 -981 889 -1246 1148 -1980 1932 -2408 2572 -153 230 -247
402 -325 599 -82 206 -113 381 -124 690 -18 535 112 945 387 1220 103 104 215
180 381 259 305 146 601 197 912 156z"/>
</g>
</svg>
