<?xml version="1.0" standalone="no"?>
<!DOCTYPE svg PUBLIC "-//W3C//DTD SVG 20010904//EN"
 "http://www.w3.org/TR/2001/REC-SVG-20010904/DTD/svg10.dtd">
<svg version="1.0" xmlns="http://www.w3.org/2000/svg"
 width="1217.000000pt" height="1280.000000pt" viewBox="0 0 1217.000000 1280.000000"
 preserveAspectRatio="xMidYMid meet">
<metadata>
Created by potrace 1.15, written by Peter Selinger 2001-2017
</metadata>
<g transform="translate(0.000000,1280.000000) scale(0.100000,-0.100000)"
fill="#000000" stroke="none">
<path d="M1841 12789 c-225 -17 -489 -67 -631 -118 -243 -89 -426 -282 -499
-527 -101 -340 14 -748 317 -1129 83 -104 283 -301 397 -391 554 -438 1273
-735 2195 -908 503 -95 1241 -155 1438 -117 91 17 195 54 260 93 92 54 202
171 249 265 l40 80 43 -50 c117 -135 333 -214 511 -186 142 22 277 92 359 186
l43 50 40 -80 c30 -60 60 -100 116 -156 158 -157 320 -215 601 -213 545 3
1312 117 1870 277 756 217 1361 544 1776 959 215 216 350 409 437 626 183 458
84 888 -259 1127 -97 68 -236 120 -424 157 -923 185 -1919 -39 -2810 -629
-567 -376 -1024 -855 -1245 -1306 l-62 -127 -47 64 c-162 219 -463 296 -713
183 -87 -39 -174 -108 -229 -183 l-47 -64 -62 127 c-221 451 -677 930 -1245
1306 -758 503 -1617 746 -2419 684z m667 -818 c346 -60 657 -164 968 -326 468
-243 890 -587 1161 -947 85 -113 192 -302 179 -315 -5 -5 -270 13 -466 32
-1118 109 -2072 465 -2576 962 -185 181 -312 396 -302 510 3 34 6 38 46 50 47
13 199 40 307 53 39 5 180 7 315 5 193 -2 271 -7 368 -24z m7945 5 c59 -10
137 -25 175 -34 64 -16 67 -18 70 -50 11 -115 -115 -332 -302 -515 -504 -497
-1458 -853 -2576 -962 -196 -19 -461 -37 -466 -32 -7 7 24 73 72 154 190 323
577 694 998 955 448 279 930 451 1401 501 100 11 524 -1 628 -17z"/>
<path d="M0 8315 l0 -1155 2810 0 2810 0 0 1155 0 1155 -2810 0 -2810 0 0
-1155z"/>
<path d="M6550 8315 l0 -1155 2810 0 2810 0 0 1155 0 1155 -2810 0 -2810 0 0
-1155z"/>
<path d="M570 3485 l0 -3485 2525 0 2525 0 0 3485 0 3485 -2525 0 -2525 0 0
-3485z"/>
<path d="M6550 3485 l0 -3485 2525 0 2525 0 0 3485 0 3485 -2525 0 -2525 0 0
-3485z"/>
</g>
</svg>
