<?xml version="1.0" standalone="no"?>
<!DOCTYPE svg PUBLIC "-//W3C//DTD SVG 20010904//EN"
 "http://www.w3.org/TR/2001/REC-SVG-20010904/DTD/svg10.dtd">
<svg version="1.0" xmlns="http://www.w3.org/2000/svg"
 width="1138.000000pt" height="1280.000000pt" viewBox="0 0 1138.000000 1280.000000"
 preserveAspectRatio="xMidYMid meet">
<g transform="translate(0.000000,1280.000000) scale(0.100000,-0.100000)"
fill="#000000" stroke="none">
<path d="M5505 12789 c-44 -4 -132 -13 -195 -19 -588 -58 -1166 -267 -1665
-604 -359 -242 -713 -591 -958 -947 -324 -468 -535 -1015 -611 -1579 -32 -236
-36 -402 -36 -1412 0 -560 -1 -1019 -2 -1020 -2 -1 -91 -4 -198 -7 l-195 -6
-6 -30 c-4 -16 -7 -1509 -8 -3316 l-1 -3286 21 -19 c21 -19 102 -19 4040 -19
3733 0 4019 1 4035 17 15 15 16 252 15 3329 -2 2549 -5 3315 -14 3321 -7 4
-89 8 -184 8 -94 0 -178 3 -187 6 -14 6 -16 105 -16 1018 0 960 -5 1173 -31
1376 -107 837 -484 1591 -1087 2171 -584 563 -1353 921 -2147 998 -60 6 -156
15 -213 21 -117 11 -241 11 -357 -1z m446 -1009 c712 -71 1359 -421 1805 -975
231 -287 416 -660 504 -1015 77 -312 80 -367 80 -1545 0 -933 -2 -1033 -16
-1039 -24 -9 -5257 -7 -5272 3 -10 6 -12 216 -9 1102 3 1060 4 1098 24 1224
47 288 123 527 248 780 308 627 829 1090 1495 1329 160 58 423 117 605 135
118 12 418 13 536 1z"/>
</g>
</svg>
